<?xml version="1.0" standalone="no"?>
<!DOCTYPE svg PUBLIC "-//W3C//DTD SVG 20010904//EN"
 "http://www.w3.org/TR/2001/REC-SVG-20010904/DTD/svg10.dtd">
<svg version="1.0" xmlns="http://www.w3.org/2000/svg"
 width="225.000000pt" height="225.000000pt" viewBox="0 0 225.000000 225.000000"
 preserveAspectRatio="xMidYMid meet">

<g transform="translate(0.000000,225.000000) scale(0.100000,-0.100000)"
fill="#ffffff" stroke="none">
<path d="M959 1845 c-233 -59 -426 -242 -506 -480 -25 -73 -27 -94 -28 -235 0
-144 2 -161 28 -235 106 -302 368 -495 672 -495 304 0 566 193 672 495 26 74
28 91 28 235 -1 141 -3 162 -28 235 -38 116 -91 199 -182 290 -89 89 -158 134
-267 172 -62 23 -93 27 -203 30 -88 1 -148 -2 -186 -12z m308 -70 c423 -100
625 -606 397 -995 -74 -127 -214 -237 -359 -283 -55 -17 -94 -22 -180 -22
-129 0 -211 21 -315 82 -293 172 -406 569 -249 879 84 167 243 296 417 339 76
18 212 18 289 0z"/>
<path d="M940 1131 l0 -351 50 0 50 0 0 140 0 140 86 0 c166 0 240 43 264 153
24 108 -12 197 -98 238 -41 21 -65 24 -199 27 l-153 4 0 -351z m321 233 c59
-59 47 -174 -22 -210 -19 -10 -67 -19 -116 -22 l-83 -5 0 138 0 137 95 -4 c91
-3 96 -4 126 -34z"/>
</g>
</svg>
